<svg width="729" height="1107" viewBox="0 0 729 1107" fill="none" xmlns="http://www.w3.org/2000/svg">
<path d="M29.8398 2C2.14044 34.7776 -3.7721 69.9165 7.17012 111.497C15.2945 142.369 44.9208 171.733 69.4568 190.841C91.3903 207.922 112.657 221.862 139.007 231.558C159.313 239.031 180.817 242.966 201.403 249.716C223.364 256.916 243.508 269.059 262.7 281.74C277.037 291.213 291.283 296.396 303.197 309.031C338.231 346.189 281.408 373.089 281.408 410.495C281.408 443.297 327.731 451.081 351.838 455.174C363.216 457.106 375.98 456.784 387.493 457.705C411.567 459.631 434.356 467.499 458.804 467.499C487.635 467.499 515.147 465.416 543.76 463.758C560.256 462.801 597.275 457.239 609.348 473.002C622.187 489.763 628.904 519.381 623.104 539.36C619.469 551.881 606.391 558.639 602.745 570.944C596.583 591.74 625.05 601.991 639.061 607.699C657.7 615.293 671.659 628.616 688.802 638.733C706.381 649.107 722.686 665.4 726.768 686.493C728.603 695.974 726.2 708.057 722.917 717.086C720.13 724.749 711.919 728.225 707.29 734.474C702.367 741.119 694.636 745.132 688.362 750.32C681.977 755.6 676.228 765.409 668.553 768.478C648.22 776.612 622.101 773.001 600.984 771.009C579.159 768.95 550.858 753.854 529.014 761.655C511.275 767.99 512.706 789.689 513.167 805.344C513.975 832.823 550.997 850.877 568.19 868.071C590.948 890.829 637.786 915.071 623.214 953.688C614.159 977.684 574.606 968.654 555.645 968.654C519.602 968.654 484.611 962.711 448.459 962.711C410.031 962.711 369.448 959.23 331.369 964.802C297.56 969.75 257.865 975.18 230.786 997.927C212.91 1012.94 197.571 1031.89 187.317 1052.84C182.414 1062.86 177.08 1072.24 173.341 1082.77C170.821 1089.88 164.538 1097.73 164.538 1105.33" stroke="#ACACAC" stroke-width="3" stroke-linecap="round" stroke-dasharray="10 10"/>
</svg>
