<svg width="108" height="108" viewBox="0 0 108 108" fill="none" xmlns="http://www.w3.org/2000/svg">
<circle cx="54" cy="54" r="52.5" fill="white" stroke="#444444" stroke-width="3"/>
<path d="M36.5386 27.9346C36.7298 27.7354 37.0463 27.7289 37.2455 27.9202L80.2497 69.1992C80.4489 69.3904 80.4554 69.7069 80.2642 69.9061L72.1177 78.3931C71.9265 78.5923 71.61 78.5987 71.4108 78.4075L28.4066 37.1285C28.2074 36.9373 28.2009 36.6208 28.3921 36.4216L36.5386 27.9346Z" stroke="#444444" stroke-linejoin="round"/>
<line x1="31.0255" y1="38.9488" x2="33.741" y2="36.1198" stroke="#ACACAC" stroke-linejoin="round"/>
<line x1="34.5359" y1="42.3187" x2="39.0617" y2="37.6037" stroke="#ACACAC" stroke-linejoin="round"/>
<line x1="38.046" y1="45.6884" x2="40.7615" y2="42.8595" stroke="#ACACAC" stroke-linejoin="round"/>
<line x1="41.5569" y1="49.0579" x2="46.0827" y2="44.343" stroke="#ACACAC" stroke-linejoin="round"/>
<line x1="45.0678" y1="52.4278" x2="47.7832" y2="49.5988" stroke="#ACACAC" stroke-linejoin="round"/>
<line x1="48.5781" y1="55.7974" x2="53.1039" y2="51.0825" stroke="#ACACAC" stroke-linejoin="round"/>
<line x1="52.0883" y1="59.1673" x2="54.8037" y2="56.3383" stroke="#ACACAC" stroke-linejoin="round"/>
<line x1="55.5989" y1="62.5369" x2="60.1247" y2="57.822" stroke="#ACACAC" stroke-linejoin="round"/>
<line x1="59.1093" y1="65.9068" x2="61.8247" y2="63.0778" stroke="#ACACAC" stroke-linejoin="round"/>
<line x1="62.6199" y1="69.2762" x2="67.1457" y2="64.5612" stroke="#ACACAC" stroke-linejoin="round"/>
<line x1="66.1305" y1="72.6461" x2="68.846" y2="69.8171" stroke="#ACACAC" stroke-linejoin="round"/>
<line x1="69.6409" y1="76.0157" x2="74.1667" y2="71.3007" stroke="#ACACAC" stroke-linejoin="round"/>
<path d="M76.1073 39.4883L67.3655 31.0972L35.0319 64.7821C34.6494 65.1806 34.6624 65.8136 35.0608 66.1961L42.3598 73.2022C42.7582 73.5846 43.3912 73.5717 43.7737 73.1732L76.1073 39.4883Z" fill="#444444"/>
<path d="M31.9418 77.2266L41.114 75.3234C41.4292 75.258 41.542 74.866 41.3098 74.6431L33.6638 67.3039C33.4316 67.081 33.0446 67.2097 32.9921 67.5273L31.4658 76.7698C31.4201 77.0469 31.6667 77.2837 31.9418 77.2266Z" fill="#ACACAC"/>
<path d="M68.9536 29.4811C68.7422 29.6589 68.7502 29.978 68.9494 30.1692L76.9697 37.8678C77.1689 38.059 77.4881 38.0539 77.657 37.8355C79.314 35.6938 78.9042 32.3794 76.6291 30.1956C74.354 28.0117 71.0256 27.7379 68.9536 29.4811Z" fill="#444444"/>
<rect x="-0.0289411" y="-1.41392" width="13.764" height="61.6097" rx="2" transform="matrix(-0.692488 0.721429 0.721429 0.692488 37.8704 27.867)" stroke="#444444" stroke-width="2" stroke-linejoin="round"/>
<line x1="30.6648" y1="38.6026" x2="33.3803" y2="35.7736" stroke="#ACACAC" stroke-width="2" stroke-linejoin="round"/>
<line x1="34.1752" y1="41.9724" x2="38.701" y2="37.2575" stroke="#ACACAC" stroke-width="2" stroke-linejoin="round"/>
<line x1="37.6853" y1="45.3422" x2="40.4008" y2="42.5132" stroke="#ACACAC" stroke-width="2" stroke-linejoin="round"/>
<line x1="41.1962" y1="48.7117" x2="45.722" y2="43.9967" stroke="#ACACAC" stroke-width="2" stroke-linejoin="round"/>
<line x1="44.707" y1="52.0816" x2="47.4225" y2="49.2526" stroke="#ACACAC" stroke-width="2" stroke-linejoin="round"/>
<line x1="48.2174" y1="55.4512" x2="52.7432" y2="50.7362" stroke="#ACACAC" stroke-width="2" stroke-linejoin="round"/>
<line x1="51.7275" y1="58.8211" x2="54.443" y2="55.9921" stroke="#ACACAC" stroke-width="2" stroke-linejoin="round"/>
<line x1="55.2382" y1="62.1907" x2="59.764" y2="57.4757" stroke="#ACACAC" stroke-width="2" stroke-linejoin="round"/>
<line x1="58.7485" y1="65.5606" x2="61.464" y2="62.7316" stroke="#ACACAC" stroke-width="2" stroke-linejoin="round"/>
<line x1="62.2592" y1="68.9299" x2="66.785" y2="64.215" stroke="#ACACAC" stroke-width="2" stroke-linejoin="round"/>
<line x1="65.7698" y1="72.2998" x2="68.4853" y2="69.4708" stroke="#ACACAC" stroke-width="2" stroke-linejoin="round"/>
<line x1="69.2802" y1="75.6695" x2="73.806" y2="70.9545" stroke="#ACACAC" stroke-width="2" stroke-linejoin="round"/>
<path d="M76.1073 39.4883L67.3655 31.0972L35.0319 64.7821C34.6494 65.1806 34.6624 65.8136 35.0608 66.1961L42.3598 73.2022C42.7582 73.5846 43.3912 73.5717 43.7737 73.1732L76.1073 39.4883Z" fill="#444444"/>
<path d="M31.9418 77.2266L41.114 75.3234C41.4292 75.258 41.542 74.866 41.3098 74.6431L33.6638 67.3039C33.4316 67.081 33.0446 67.2097 32.9921 67.5273L31.4658 76.7698C31.4201 77.0469 31.6667 77.2837 31.9418 77.2266Z" fill="#ACACAC"/>
<path d="M68.9536 29.4811C68.7422 29.6589 68.7502 29.978 68.9494 30.1692L76.9697 37.8678C77.1689 38.059 77.4881 38.0539 77.657 37.8355C79.314 35.6938 78.9042 32.3794 76.6291 30.1956C74.354 28.0117 71.0256 27.7379 68.9536 29.4811Z" fill="#444444"/>
</svg>
