<svg width="108" height="108" viewBox="0 0 108 108" fill="none" xmlns="http://www.w3.org/2000/svg">
<circle cx="54" cy="54" r="52.5" fill="white" stroke="#444444" stroke-width="3"/>
<path d="M50.3616 30.0725C51.0575 25.9758 56.9425 25.9758 57.6384 30.0725C58.1533 33.1036 61.9316 34.213 64.0035 31.9414C66.8037 28.8713 71.7545 32.053 70.1251 35.8756C68.9195 38.7039 71.4982 41.6799 74.4693 40.8891C78.4848 39.8203 80.9296 45.1735 77.4922 47.5083C74.9489 49.2358 75.5093 53.1335 78.4363 54.0745C82.3922 55.3464 81.5547 61.1715 77.4007 61.2773C74.3272 61.3556 72.6914 64.9375 74.6449 67.3116C77.2853 70.5202 73.4314 74.9679 69.8797 72.811C67.2517 71.2152 63.939 73.3442 64.2989 76.3975C64.7854 80.5243 59.1388 82.1823 57.3169 78.4477C55.9689 75.6844 52.0311 75.6844 50.6831 78.4477C48.8613 82.1823 43.2146 80.5243 43.7011 76.3975C44.061 73.3442 40.7483 71.2152 38.1204 72.811C34.5686 74.9679 30.7147 70.5202 33.3551 67.3116C35.3086 64.9375 33.6728 61.3556 30.5993 61.2773C26.4453 61.1715 25.6078 55.3464 29.5637 54.0745C32.4907 53.1335 33.0511 49.2358 30.5078 47.5083C27.0704 45.1735 29.5152 39.8203 33.5307 40.8891C36.5018 41.6799 39.0805 38.7039 37.8749 35.8756C36.2455 32.053 41.1963 28.8714 43.9965 31.9414C46.0684 34.213 49.8467 33.1036 50.3616 30.0725Z" fill="#444444"/>
<path d="M69.8551 54.237C69.8551 62.9935 62.7566 70.0921 54 70.0921C45.2435 70.0921 38.1449 62.9935 38.1449 54.237C38.1449 45.4804 45.2435 38.3818 54 38.3818C62.7566 38.3818 69.8551 45.4804 69.8551 54.237Z" fill="#444444"/>
<circle cx="53.8551" cy="53.8551" r="15.3551" fill="white" stroke="#ACACAC"/>
</svg>
