<svg width="108" height="108" viewBox="0 0 108 108" fill="none" xmlns="http://www.w3.org/2000/svg">
<circle cx="54" cy="54" r="52.5" fill="white" stroke="#444444" stroke-width="3"/>
<path d="M30 26C30 24.8954 30.8954 24 32 24H63.8248L67.127 30.4209C67.5413 31.2265 66.685 32.0925 65.8748 31.6875L76.1247 36.2999V75.8122C76.1247 76.9168 75.2293 77.8122 74.1247 77.8122H32C30.8954 77.8122 30 76.9168 30 75.8122V26Z" fill="#ACACAC"/>
<line x1="35.1249" y1="41.4374" x2="50.4998" y2="41.4374" stroke="#444444"/>
<line x1="55.6249" y1="41.4374" x2="70.9998" y2="41.4374" stroke="#444444"/>
<line x1="35.1249" y1="49.1249" x2="50.4998" y2="49.1249" stroke="#444444"/>
<line x1="55.6249" y1="49.1249" x2="70.9998" y2="49.1249" stroke="#444444"/>
<line x1="35.1249" y1="56.8123" x2="50.4998" y2="56.8123" stroke="#444444"/>
<line x1="55.6249" y1="56.8123" x2="70.9998" y2="56.8123" stroke="#444444"/>
<line x1="35.1249" y1="64.4998" x2="50.4998" y2="64.4998" stroke="#444444"/>
<line x1="55.6249" y1="64.4998" x2="70.9998" y2="64.4998" stroke="#444444"/>
<path d="M63.8247 24L76.1246 36.2999H65.8247C64.7201 36.2999 63.8247 35.4045 63.8247 34.2999V24Z" fill="#444444"/>
<circle cx="47.6811" cy="52.4436" r="13.6062" fill="#ACACAC" stroke="#444444" stroke-width="2"/>
<line x1="36.1499" y1="58.6123" x2="59.2123" y2="58.6123" stroke="#444444" stroke-width="1.5"/>
<path d="M57.9052 62.4465L77.2703 82.0145" stroke="#444444" stroke-width="2.5" stroke-linecap="round"/>
<line x1="35.6124" y1="47.3874" x2="60.2123" y2="47.3874" stroke="#444444" stroke-width="1.5"/>
</svg>
