<svg width="490" height="800" viewBox="0 0 490 800" fill="none" xmlns="http://www.w3.org/2000/svg">
<path d="M20.3393 24.1409C1.76471 46.1208 -2.20011 69.6842 5.1375 97.5671C10.5855 118.27 30.4523 137.96 46.9056 150.773C61.6137 162.228 75.8749 171.575 93.5442 178.078C107.161 183.089 121.581 185.728 135.386 190.254C150.112 195.082 163.62 203.225 176.49 211.728C186.105 218.081 195.658 221.556 203.647 230.03C227.14 254.946 189.035 272.985 189.035 298.069C189.035 320.065 220.099 325.285 236.264 328.03C243.894 329.325 252.453 329.109 260.174 329.727C276.317 331.018 291.599 336.295 307.993 336.295C327.327 336.295 345.776 334.898 364.963 333.786C376.025 333.144 400.849 329.414 408.945 339.984C417.554 351.224 422.059 371.085 418.169 384.483C415.732 392.879 406.962 397.411 404.517 405.662C400.385 419.608 419.475 426.482 428.87 430.31C441.369 435.402 450.73 444.336 462.225 451.12C474.013 458.077 484.947 469.003 487.684 483.147C488.915 489.505 487.303 497.608 485.102 503.662C483.233 508.801 477.727 511.132 474.623 515.322C471.322 519.778 466.137 522.469 461.93 525.948C457.648 529.489 453.793 536.066 448.647 538.125C435.012 543.579 417.497 541.158 403.337 539.822C388.701 538.441 369.723 528.318 355.074 533.549C343.18 537.797 344.139 552.348 344.448 562.846C344.99 581.273 369.816 593.38 381.346 604.909C396.606 620.17 428.015 636.426 418.243 662.322C412.171 678.413 385.647 672.358 372.933 672.358C348.763 672.358 325.299 668.373 301.056 668.373C275.287 668.373 248.073 666.038 222.538 669.775C199.867 673.093 173.248 676.734 155.089 691.988C143.102 702.057 132.816 714.761 125.94 728.811C122.653 735.53 119.075 741.819 116.568 748.884C114.878 753.647 110.665 758.913 110.665 764.012" stroke="#ACACAC" stroke-width="3" stroke-linecap="round" stroke-dasharray="10 10"/>
<circle cx="37.2112" cy="36.2112" r="34.7112" fill="white" stroke="#444444" stroke-width="3"/>
<path d="M21.1173 18.094C21.1173 16.9894 22.0127 16.094 23.1173 16.094H43.7995L46.0139 20.3997C46.2917 20.9399 45.7175 21.5207 45.1742 21.249V21.249L52.0476 24.3421V50.1793C52.0476 51.2839 51.1521 52.1793 50.0476 52.1793H23.1173C22.0127 52.1793 21.1173 51.2839 21.1173 50.1793V18.094Z" fill="#ACACAC"/>
<line x1="24.554" y1="27.6223" x2="34.864" y2="27.6223" stroke="#444444"/>
<line x1="38.3008" y1="27.6223" x2="48.6109" y2="27.6223" stroke="#444444"/>
<line x1="24.554" y1="32.7773" x2="34.864" y2="32.7773" stroke="#444444"/>
<line x1="38.3008" y1="32.7773" x2="48.6109" y2="32.7773" stroke="#444444"/>
<line x1="24.554" y1="37.9324" x2="34.864" y2="37.9324" stroke="#444444"/>
<line x1="38.3008" y1="37.9324" x2="48.6109" y2="37.9324" stroke="#444444"/>
<line x1="24.554" y1="43.0874" x2="34.864" y2="43.0874" stroke="#444444"/>
<line x1="38.3008" y1="43.0874" x2="48.6109" y2="43.0874" stroke="#444444"/>
<path d="M43.7994 16.094L52.0475 24.3421H45.7994C44.6949 24.3421 43.7994 23.4466 43.7994 22.3421V16.094Z" fill="#444444"/>
<circle cx="32.9739" cy="35.1676" r="8.79458" fill="#ACACAC" stroke="#444444" stroke-width="2"/>
<line x1="25.2413" y1="39.0571" x2="40.7065" y2="39.0571" stroke="#444444" stroke-width="1.5"/>
<path d="M39.83 41.8752L52.8158 54.9972" stroke="#444444" stroke-width="2.5" stroke-linecap="round"/>
<line x1="24.881" y1="31.53" x2="41.3771" y2="31.53" stroke="#444444" stroke-width="1.5"/>
<circle cx="184.068" cy="218.608" r="34.7112" fill="white" stroke="#444444" stroke-width="3"/>
<path d="M172.24 201.016C172.431 200.817 172.748 200.81 172.947 201.001L201.785 228.682C201.984 228.873 201.99 229.19 201.799 229.389L196.336 235.08C196.145 235.279 195.828 235.286 195.629 235.095L166.792 207.414C166.592 207.223 166.586 206.906 166.777 206.707L172.24 201.016Z" stroke="#444444" stroke-linejoin="round"/>
<line x1="168.543" y1="208.402" x2="170.364" y2="206.505" stroke="#ACACAC" stroke-linejoin="round"/>
<line x1="170.897" y1="210.661" x2="173.932" y2="207.5" stroke="#ACACAC" stroke-linejoin="round"/>
<line x1="173.251" y1="212.921" x2="175.072" y2="211.024" stroke="#ACACAC" stroke-linejoin="round"/>
<line x1="175.605" y1="215.181" x2="178.64" y2="212.019" stroke="#ACACAC" stroke-linejoin="round"/>
<line x1="177.959" y1="217.44" x2="179.78" y2="215.543" stroke="#ACACAC" stroke-linejoin="round"/>
<line x1="180.313" y1="219.7" x2="183.348" y2="216.538" stroke="#ACACAC" stroke-linejoin="round"/>
<line x1="182.667" y1="221.96" x2="184.488" y2="220.063" stroke="#ACACAC" stroke-linejoin="round"/>
<line x1="185.021" y1="224.219" x2="188.056" y2="221.057" stroke="#ACACAC" stroke-linejoin="round"/>
<line x1="187.375" y1="226.479" x2="189.196" y2="224.582" stroke="#ACACAC" stroke-linejoin="round"/>
<line x1="189.729" y1="228.738" x2="192.764" y2="225.577" stroke="#ACACAC" stroke-linejoin="round"/>
<line x1="192.083" y1="230.998" x2="193.904" y2="229.101" stroke="#ACACAC" stroke-linejoin="round"/>
<line x1="194.438" y1="233.258" x2="197.472" y2="230.096" stroke="#ACACAC" stroke-linejoin="round"/>
<path d="M198.893 208.877L193.031 203.25L171.576 225.601C171.194 225.999 171.207 226.633 171.605 227.015L176.025 231.257C176.423 231.639 177.056 231.626 177.438 231.228L198.893 208.877Z" fill="#444444"/>
<path d="M169.464 234.145L175.182 232.959C175.497 232.893 175.61 232.501 175.378 232.278L170.611 227.703C170.379 227.48 169.992 227.609 169.94 227.927L168.988 233.688C168.943 233.965 169.189 234.202 169.464 234.145Z" fill="#ACACAC"/>
<path d="M194.224 202.064C194.004 202.23 194.012 202.551 194.211 202.742L199.352 207.677C199.551 207.868 199.872 207.863 200.029 207.636C201.025 206.199 200.722 204.066 199.242 202.646C197.763 201.226 195.62 201.01 194.224 202.064Z" fill="#444444"/>
<rect x="-0.0289411" y="-1.41392" width="9.88871" height="41.973" rx="2" transform="matrix(-0.692488 0.721429 0.721429 0.692488 173.572 200.948)" stroke="#444444" stroke-width="2" stroke-linejoin="round"/>
<line x1="168.182" y1="208.055" x2="170.003" y2="206.158" stroke="#ACACAC" stroke-width="2" stroke-linejoin="round"/>
<line x1="170.536" y1="210.315" x2="173.571" y2="207.153" stroke="#ACACAC" stroke-width="2" stroke-linejoin="round"/>
<line x1="172.89" y1="212.575" x2="174.711" y2="210.678" stroke="#ACACAC" stroke-width="2" stroke-linejoin="round"/>
<line x1="175.244" y1="214.834" x2="178.279" y2="211.673" stroke="#ACACAC" stroke-width="2" stroke-linejoin="round"/>
<line x1="177.599" y1="217.094" x2="179.42" y2="215.197" stroke="#ACACAC" stroke-width="2" stroke-linejoin="round"/>
<line x1="179.953" y1="219.354" x2="182.987" y2="216.192" stroke="#ACACAC" stroke-width="2" stroke-linejoin="round"/>
<line x1="182.306" y1="221.613" x2="184.127" y2="219.716" stroke="#ACACAC" stroke-width="2" stroke-linejoin="round"/>
<line x1="184.661" y1="223.873" x2="187.695" y2="220.711" stroke="#ACACAC" stroke-width="2" stroke-linejoin="round"/>
<line x1="187.015" y1="226.133" x2="188.835" y2="224.236" stroke="#ACACAC" stroke-width="2" stroke-linejoin="round"/>
<line x1="189.369" y1="228.392" x2="192.404" y2="225.23" stroke="#ACACAC" stroke-width="2" stroke-linejoin="round"/>
<line x1="191.723" y1="230.652" x2="193.544" y2="228.755" stroke="#ACACAC" stroke-width="2" stroke-linejoin="round"/>
<line x1="194.077" y1="232.912" x2="197.112" y2="229.75" stroke="#ACACAC" stroke-width="2" stroke-linejoin="round"/>
<path d="M198.893 208.877L193.031 203.25L171.576 225.601C171.194 225.999 171.207 226.633 171.605 227.015L176.025 231.257C176.423 231.639 177.056 231.626 177.438 231.228L198.893 208.877Z" fill="#444444"/>
<path d="M169.464 234.145L175.182 232.959C175.497 232.893 175.61 232.501 175.378 232.278L170.611 227.703C170.379 227.48 169.992 227.609 169.94 227.927L168.988 233.688C168.943 233.965 169.189 234.202 169.464 234.145Z" fill="#ACACAC"/>
<path d="M194.224 202.064C194.004 202.23 194.012 202.551 194.211 202.742L199.352 207.677C199.551 207.868 199.872 207.863 200.029 207.636C201.025 206.199 200.722 204.066 199.242 202.646C197.763 201.226 195.62 201.01 194.224 202.064Z" fill="#444444"/>
<circle cx="110.975" cy="763.789" r="34.7112" fill="white" stroke="#444444" stroke-width="3"/>
<circle cx="110.921" cy="755.769" r="7.40319" fill="#ACACAC"/>
<path d="M126.961 779.212H94.881C94.881 770.353 102.062 763.172 110.921 763.172C119.78 763.172 126.961 770.353 126.961 779.212Z" fill="#444444"/>
<circle cx="399.994" cy="400.335" r="34.7112" fill="white" stroke="#444444" stroke-width="3"/>
<path d="M397.554 384.29C398.021 381.543 401.967 381.543 402.434 384.29C402.779 386.323 405.313 387.067 406.702 385.543C408.58 383.485 411.9 385.618 410.807 388.182C409.999 390.078 411.728 392.074 413.72 391.543C416.413 390.827 418.053 394.416 415.748 395.982C414.042 397.141 414.418 399.754 416.381 400.385C419.033 401.238 418.472 405.144 415.686 405.215C413.625 405.268 412.528 407.67 413.838 409.262C415.609 411.413 413.024 414.396 410.643 412.95C408.88 411.88 406.659 413.307 406.9 415.355C407.227 418.122 403.44 419.234 402.218 416.729C401.314 414.876 398.674 414.876 397.77 416.729C396.548 419.234 392.762 418.122 393.088 415.355C393.329 413.307 391.108 411.88 389.346 412.95C386.964 414.396 384.38 411.413 386.15 409.262C387.46 407.67 386.363 405.268 384.302 405.215C381.517 405.144 380.955 401.238 383.608 400.385C385.57 399.754 385.946 397.141 384.241 395.982C381.936 394.416 383.575 390.827 386.268 391.543C388.26 392.074 389.989 390.078 389.181 388.182C388.088 385.618 391.408 383.485 393.286 385.543C394.675 387.067 397.209 386.323 397.554 384.29Z" fill="#444444"/>
<path d="M410.626 400.494C410.626 406.366 405.866 411.126 399.994 411.126C394.122 411.126 389.362 406.366 389.362 400.494C389.362 394.622 394.122 389.862 399.994 389.862C405.866 389.862 410.626 394.622 410.626 400.494Z" fill="#444444"/>
<circle cx="399.897" cy="400.238" r="10.1321" fill="white" stroke="#ACACAC"/>
<circle cx="363.783" cy="582.062" r="34.7112" fill="white" stroke="#444444" stroke-width="3"/>
<circle cx="353.457" cy="573.83" r="7.40308" fill="#444444"/>
<rect x="366.412" y="566.427" width="14.8062" height="14.8062" fill="#ACACAC"/>
<path d="M363.636 584.009L372.451 599.278H354.82L363.636 584.009Z" fill="#444444"/>
</svg>
