<svg width="729" height="1193" viewBox="0 0 729 1193" fill="none" xmlns="http://www.w3.org/2000/svg">
<path d="M29.8398 36C2.14044 68.7776 -3.7721 103.916 7.17012 145.497C15.2945 176.369 44.9208 205.733 69.4568 224.841C91.3903 241.922 112.657 255.862 139.007 265.558C159.313 273.031 180.817 276.966 201.403 283.716C223.364 290.916 243.508 303.059 262.7 315.74C277.037 325.213 291.283 330.396 303.197 343.031C338.231 380.189 281.408 407.089 281.408 444.495C281.408 477.297 327.731 485.081 351.838 489.174C363.216 491.106 375.98 490.784 387.493 491.705C411.567 493.631 434.356 501.499 458.804 501.499C487.635 501.499 515.147 499.416 543.76 497.758C560.256 496.801 597.275 491.239 609.348 507.002C622.187 523.763 628.904 553.381 623.104 573.36C619.469 585.881 606.391 592.639 602.745 604.944C596.583 625.74 625.05 635.991 639.061 641.699C657.7 649.293 671.659 662.616 688.802 672.733C706.381 683.107 722.686 699.4 726.768 720.493C728.603 729.974 726.2 742.057 722.917 751.086C720.13 758.749 711.919 762.225 707.29 768.474C702.367 775.119 694.636 779.132 688.362 784.32C681.977 789.6 676.228 799.409 668.553 802.478C648.22 810.612 622.101 807.001 600.984 805.009C579.159 802.95 550.858 787.854 529.014 795.655C511.275 801.99 512.706 823.689 513.167 839.344C513.975 866.823 550.997 884.877 568.19 902.071C590.948 924.829 637.786 949.071 623.214 987.688C614.159 1011.68 574.606 1002.65 555.645 1002.65C519.602 1002.65 484.611 996.711 448.459 996.711C410.031 996.711 369.448 993.23 331.369 998.802C297.56 1003.75 257.865 1009.18 230.786 1031.93C212.91 1046.94 197.571 1065.89 187.317 1086.84C182.414 1096.86 177.08 1106.24 173.341 1116.77C170.821 1123.88 164.538 1131.73 164.538 1139.33" stroke="#ACACAC" stroke-width="3" stroke-linecap="round" stroke-dasharray="10 10"/>
<circle cx="55" cy="54" r="52.5" fill="white" stroke="#444444" stroke-width="3"/>
<path d="M31 26C31 24.8954 31.8954 24 33 24H64.8248L68.127 30.4209C68.5413 31.2265 67.685 32.0925 66.8748 31.6875V31.6875L77.1247 36.2999V75.8122C77.1247 76.9168 76.2293 77.8122 75.1247 77.8122H33C31.8954 77.8122 31 76.9168 31 75.8122V26Z" fill="#ACACAC"/>
<line x1="36.1249" y1="41.4374" x2="51.4998" y2="41.4374" stroke="#444444"/>
<line x1="56.6249" y1="41.4374" x2="71.9998" y2="41.4374" stroke="#444444"/>
<line x1="36.1249" y1="49.1249" x2="51.4998" y2="49.1249" stroke="#444444"/>
<line x1="56.6249" y1="49.1249" x2="71.9998" y2="49.1249" stroke="#444444"/>
<line x1="36.1249" y1="56.8123" x2="51.4998" y2="56.8123" stroke="#444444"/>
<line x1="56.6249" y1="56.8123" x2="71.9998" y2="56.8123" stroke="#444444"/>
<line x1="36.1249" y1="64.4998" x2="51.4998" y2="64.4998" stroke="#444444"/>
<line x1="56.6249" y1="64.4998" x2="71.9998" y2="64.4998" stroke="#444444"/>
<path d="M64.8247 24L77.1246 36.2999H66.8247C65.7201 36.2999 64.8247 35.4045 64.8247 34.2999V24Z" fill="#444444"/>
<circle cx="48.6811" cy="52.4436" r="13.6062" fill="#ACACAC" stroke="#444444" stroke-width="2"/>
<line x1="37.1499" y1="58.6123" x2="60.2123" y2="58.6123" stroke="#444444" stroke-width="1.5"/>
<path d="M58.9052 62.4465L78.2703 82.0145" stroke="#444444" stroke-width="2.5" stroke-linecap="round"/>
<line x1="36.6124" y1="47.3874" x2="61.2123" y2="47.3874" stroke="#444444" stroke-width="1.5"/>
<circle cx="274" cy="326" r="52.5" fill="white" stroke="#444444" stroke-width="3"/>
<path d="M256.539 299.935C256.73 299.735 257.046 299.729 257.246 299.92L300.25 341.199C300.449 341.39 300.455 341.707 300.264 341.906L292.118 350.393C291.927 350.592 291.61 350.599 291.411 350.408L248.407 309.129C248.207 308.937 248.201 308.621 248.392 308.422L256.539 299.935Z" stroke="#444444" stroke-linejoin="round"/>
<line x1="251.026" y1="310.949" x2="253.741" y2="308.12" stroke="#ACACAC" stroke-linejoin="round"/>
<line x1="254.536" y1="314.319" x2="259.062" y2="309.604" stroke="#ACACAC" stroke-linejoin="round"/>
<line x1="258.046" y1="317.688" x2="260.762" y2="314.859" stroke="#ACACAC" stroke-linejoin="round"/>
<line x1="261.557" y1="321.058" x2="266.083" y2="316.343" stroke="#ACACAC" stroke-linejoin="round"/>
<line x1="265.068" y1="324.428" x2="267.783" y2="321.599" stroke="#ACACAC" stroke-linejoin="round"/>
<line x1="268.578" y1="327.797" x2="273.104" y2="323.082" stroke="#ACACAC" stroke-linejoin="round"/>
<line x1="272.088" y1="331.167" x2="274.804" y2="328.338" stroke="#ACACAC" stroke-linejoin="round"/>
<line x1="275.599" y1="334.537" x2="280.125" y2="329.822" stroke="#ACACAC" stroke-linejoin="round"/>
<line x1="279.109" y1="337.907" x2="281.825" y2="335.078" stroke="#ACACAC" stroke-linejoin="round"/>
<line x1="282.62" y1="341.276" x2="287.146" y2="336.561" stroke="#ACACAC" stroke-linejoin="round"/>
<line x1="286.13" y1="344.646" x2="288.846" y2="341.817" stroke="#ACACAC" stroke-linejoin="round"/>
<line x1="289.641" y1="348.016" x2="294.167" y2="343.301" stroke="#ACACAC" stroke-linejoin="round"/>
<path d="M296.107 311.488L287.366 303.097L255.032 336.782C254.649 337.181 254.662 337.814 255.061 338.196L262.36 345.202C262.758 345.585 263.391 345.572 263.774 345.173L296.107 311.488Z" fill="#444444"/>
<path d="M251.942 349.227L261.114 347.323C261.429 347.258 261.542 346.866 261.31 346.643L253.664 339.304C253.432 339.081 253.045 339.21 252.992 339.527L251.466 348.77C251.42 349.047 251.667 349.284 251.942 349.227Z" fill="#ACACAC"/>
<path d="M288.954 301.481C288.742 301.659 288.75 301.978 288.949 302.169L296.97 309.868C297.169 310.059 297.488 310.054 297.657 309.835C299.314 307.694 298.904 304.379 296.629 302.196C294.354 300.012 291.026 299.738 288.954 301.481Z" fill="#444444"/>
<rect x="-0.0289411" y="-1.41392" width="13.764" height="61.6097" rx="2" transform="matrix(-0.692488 0.721429 0.721429 0.692488 257.87 299.867)" stroke="#444444" stroke-width="2" stroke-linejoin="round"/>
<line x1="250.665" y1="310.603" x2="253.38" y2="307.774" stroke="#ACACAC" stroke-width="2" stroke-linejoin="round"/>
<line x1="254.175" y1="313.972" x2="258.701" y2="309.257" stroke="#ACACAC" stroke-width="2" stroke-linejoin="round"/>
<line x1="257.685" y1="317.342" x2="260.401" y2="314.513" stroke="#ACACAC" stroke-width="2" stroke-linejoin="round"/>
<line x1="261.196" y1="320.712" x2="265.722" y2="315.997" stroke="#ACACAC" stroke-width="2" stroke-linejoin="round"/>
<line x1="264.707" y1="324.082" x2="267.423" y2="321.253" stroke="#ACACAC" stroke-width="2" stroke-linejoin="round"/>
<line x1="268.217" y1="327.451" x2="272.743" y2="322.736" stroke="#ACACAC" stroke-width="2" stroke-linejoin="round"/>
<line x1="271.728" y1="330.821" x2="274.443" y2="327.992" stroke="#ACACAC" stroke-width="2" stroke-linejoin="round"/>
<line x1="275.238" y1="334.191" x2="279.764" y2="329.476" stroke="#ACACAC" stroke-width="2" stroke-linejoin="round"/>
<line x1="278.749" y1="337.561" x2="281.464" y2="334.732" stroke="#ACACAC" stroke-width="2" stroke-linejoin="round"/>
<line x1="282.259" y1="340.93" x2="286.785" y2="336.215" stroke="#ACACAC" stroke-width="2" stroke-linejoin="round"/>
<line x1="285.77" y1="344.3" x2="288.485" y2="341.471" stroke="#ACACAC" stroke-width="2" stroke-linejoin="round"/>
<line x1="289.28" y1="347.669" x2="293.806" y2="342.954" stroke="#ACACAC" stroke-width="2" stroke-linejoin="round"/>
<path d="M296.107 311.488L287.366 303.097L255.032 336.782C254.649 337.181 254.662 337.814 255.061 338.196L262.36 345.202C262.758 345.585 263.391 345.572 263.774 345.173L296.107 311.488Z" fill="#444444"/>
<path d="M251.942 349.227L261.114 347.323C261.429 347.258 261.542 346.866 261.31 346.643L253.664 339.304C253.432 339.081 253.045 339.21 252.992 339.527L251.466 348.77C251.42 349.047 251.667 349.284 251.942 349.227Z" fill="#ACACAC"/>
<path d="M288.954 301.481C288.742 301.659 288.75 301.978 288.949 302.169L296.97 309.868C297.169 310.059 297.488 310.054 297.657 309.835C299.314 307.694 298.904 304.379 296.629 302.196C294.354 300.012 291.026 299.738 288.954 301.481Z" fill="#444444"/>
<circle cx="165" cy="1139" r="52.5" fill="white" stroke="#444444" stroke-width="3"/>
<circle cx="164.92" cy="1127.04" r="11.04" fill="#ACACAC"/>
<path d="M188.84 1162H141C141 1148.79 151.709 1138.08 164.92 1138.08C178.131 1138.08 188.84 1148.79 188.84 1162Z" fill="#444444"/>
<circle cx="596" cy="597" r="52.5" fill="white" stroke="#444444" stroke-width="3"/>
<path d="M592.362 573.072C593.057 568.976 598.943 568.976 599.638 573.072C600.153 576.104 603.932 577.213 606.003 574.941C608.804 571.871 613.755 575.053 612.125 578.876C610.92 581.704 613.498 584.68 616.469 583.889C620.485 582.82 622.93 588.173 619.492 590.508C616.949 592.236 617.509 596.134 620.436 597.075C624.392 598.346 623.555 604.171 619.401 604.277C616.327 604.356 614.691 607.938 616.645 610.312C619.285 613.52 615.431 617.968 611.88 615.811C609.252 614.215 605.939 616.344 606.299 619.398C606.785 623.524 601.139 625.182 599.317 621.448C597.969 618.684 594.031 618.684 592.683 621.448C590.861 625.182 585.215 623.524 585.701 619.398C586.061 616.344 582.748 614.215 580.12 615.811C576.569 617.968 572.715 613.52 575.355 610.312C577.309 607.938 575.673 604.356 572.599 604.277C568.445 604.171 567.608 598.346 571.564 597.075C574.491 596.134 575.051 592.236 572.508 590.508C569.07 588.173 571.515 582.82 575.531 583.889C578.502 584.68 581.08 581.704 579.875 578.876C578.245 575.053 583.196 571.871 585.997 574.941C588.068 577.213 591.847 576.104 592.362 573.072Z" fill="#444444"/>
<path d="M611.855 597.237C611.855 605.994 604.757 613.092 596 613.092C587.243 613.092 580.145 605.994 580.145 597.237C580.145 588.48 587.243 581.382 596 581.382C604.757 581.382 611.855 588.48 611.855 597.237Z" fill="#444444"/>
<circle cx="595.855" cy="596.855" r="15.3551" fill="white" stroke="#ACACAC"/>
<circle cx="542" cy="868" r="52.5" fill="white" stroke="#444444" stroke-width="3"/>
<circle cx="526.601" cy="855.724" r="11.0398" fill="#444444"/>
<rect x="545.92" y="844.684" width="22.0797" height="22.0797" fill="#ACACAC"/>
<path d="M541.781 870.904L554.927 893.673H528.635L541.781 870.904Z" fill="#444444"/>
</svg>
